<?xml version="1.0" encoding="utf-8"?>
<!-- Generator: Adobe Illustrator 16.0.0, SVG Export Plug-In . SVG Version: 6.00 Build 0)  -->
<!DOCTYPE svg PUBLIC "-//W3C//DTD SVG 1.1//EN" "http://www.w3.org/Graphics/SVG/1.1/DTD/svg11.dtd">
<svg version="1.1" id="Layer_1" xmlns="http://www.w3.org/2000/svg" xmlns:xlink="http://www.w3.org/1999/xlink" x="0px" y="0px"
	 width="1899.19px" height="549px" viewBox="0 0 1899.19 549" enable-background="new 0 0 1899.19 549" xml:space="preserve">
<g>
	<path fill="#FBA919" d="M514.654,203.833c-63.286,0-114.59,51.304-114.59,114.59c0,38.222,18.732,72.051,47.5,92.869
		l107.917-199.943C542.795,206.509,529.04,203.833,514.654,203.833z"/>
	<path fill="#FBA919" d="M581.743,225.55L473.825,425.497c12.687,4.84,26.441,7.514,40.829,7.514
		c63.286,0,114.589-51.303,114.589-114.588C629.243,280.198,610.509,246.369,581.743,225.55z"/>
</g>
<g>
	<path fill="#FBA919" d="M327.811,229.562c35.265-15.733,49.371-43.945,49.371-73.242c0-76.501-55.88-110.136-130.751-110.136
		H94.698c1.181,2.502,1.863,5.271,1.863,8.182c0,0.743-0.054,1.475-0.138,2.198c0.181-0.003,0.359-0.014,0.541-0.014
		c17.166,0,31.49,14.324,31.49,31.49c0,9.128-4.051,17.452-10.425,23.247H246.43c45.573,0,59.68,29.299,59.68,46.66
		c0,21.702-14.649,40.691-59.68,40.691H122.313v62.934H246.43c29.297,0,71.073,17.905,71.073,52.084
		c0,35.808-41.776,45.573-71.073,45.573h-103.75c8.934,9.745,15.616,22.469,11.836,44.614l-0.029,0.162
		c-1.142,6.047-3.063,14.798-5.704,21.957h97.648c78.668,0,142.146-27.127,142.146-111.763
		C388.576,290.326,372.299,243.125,327.811,229.562z"/>
</g>
<path fill="#333333" d="M132.316,362.019l-0.361-0.344c0,0-18.996-19.516-18.996-77.666c0-48.089,0-127.2,0-153.138
	c16.584-6.213,28.393-22.204,28.393-40.958c0-24.151-19.579-43.73-43.73-43.73s-43.73,19.579-43.73,43.73
	c0,18.325,11.276,34.007,27.264,40.512v153.583c0,0,2.714,63.384-16.401,84.343c-0.695,0.65-1.337,1.29-1.949,1.919
	c-0.001,0-0.001,0.001-0.001,0.001l0,0c-0.947,0.975-1.807,1.921-2.56,2.81c-0.017,0.021-0.032,0.043-0.049,0.063
	c-8.665,10.771-14.7,24.549-8.91,38.767c10.931,26.25,32.905,34.862,37.642,35.436l-12.101-38.558
	c-2.432-7.75,2.241-16.117,10.438-18.689l18.551-5.822c8.196-2.572,16.813,1.625,19.245,9.375l11.353,36.176
	c2.206-1.843,6.037-12.5,8.881-27.562C148.794,381.767,142.191,371.498,132.316,362.019z M75.688,77.25l21.934-12.664l21.934,12.664
	v25.327l-21.934,12.664l-21.934-12.664V77.25z"/>
<path fill="#FBA919" d="M641.556,513.902V211.525h49.315l3.461,29.416c16.438-23.792,44.989-34.174,69.213-34.174
	c65.753,0,109.443,48.882,109.443,111.606c0,62.292-39.365,111.607-107.714,111.607c-22.494,0-55.803-6.921-70.943-30.281v114.202
	H641.556z M820.213,318.374c0-33.309-22.494-60.562-60.562-60.562c-38.068,0-60.562,27.253-60.562,60.562
	c0,33.31,24.657,60.563,60.562,60.563C795.556,378.936,820.213,351.683,820.213,318.374z"/>
<g>
	<path fill="#FBA919" d="M1028.756,426.014V310.785c0-28.373-14.84-54.124-44.084-54.124c-28.81,0-45.831,25.751-45.831,54.124
		v115.229h-53.25V210.395h49.321l3.929,26.188c11.348-21.823,36.227-29.679,56.743-29.679c25.751,0,51.504,10.475,63.724,40.155
		c19.205-30.553,44.085-39.284,72.019-39.284c61.106,0,91.226,37.538,91.226,102.136v116.103H1169.3V309.911
		c0-28.371-11.784-52.376-40.592-52.376c-28.807,0-46.704,24.877-46.704,53.25v115.229H1028.756z"/>
	<path fill="#FBA919" d="M1415.062,210.831h51.068v215.183h-50.195l-2.618-31.426c-12.221,25.315-45.831,37.536-69.835,37.973
		c-63.727,0.438-110.867-38.846-110.867-114.356c0-74.202,49.322-113.047,112.175-112.611c28.808,0,56.307,13.531,68.527,34.918
		L1415.062,210.831z M1285.867,318.205c0,41.029,28.371,65.47,63.725,65.47c83.804,0,83.804-130.505,0-130.505
		C1314.238,253.169,1285.867,277.175,1285.867,318.205z"/>
	<path fill="#FBA919" d="M1641.562,235.82c0,41.466-62.853,41.466-62.853,0C1578.709,194.355,1641.562,194.355,1641.562,235.82z
		 M1583.51,285.651v141.814h53.25V285.651H1583.51z"/>
	<path fill="#FBA919" d="M1844.483,398.516c-24.879,24.442-51.066,34.044-82.931,34.044c-62.416,0-114.356-37.536-114.356-113.919
		s51.94-113.92,114.356-113.92c30.554,0,54.123,8.729,77.692,31.862l-33.608,35.354c-12.657-11.349-28.368-17.022-43.211-17.022
		c-35.79,0-61.979,26.189-61.979,63.726c0,41.028,27.937,62.852,61.106,62.852c17.023,0,34.045-4.8,47.139-17.896L1844.483,398.516z
		"/>
	<path fill="#FBA919" d="M1541.538,349.52v-92.141h27.686v-45.421h-27.252v-60.562l-52.775,5.623v54.938h-11.736v45.421h11.736
		v92.141c0,53.208,30.281,79.596,76.567,77.866c1.173-0.032,2.322-0.079,3.46-0.134v-47.45
		C1552.785,379.801,1541.538,369.852,1541.538,349.52z"/>
</g>
</svg>
